# xmcd
#
# Track frame offsets:
#	150
#	21892
#	36020
#	54232
#	64927
#	75268
#	87877
#	105127
#	122822
#	138155
#	155802
#	168552
#	181987
#	197552
#	213203
#
# Disc length: 3067 seconds
# Revision: 0
# Processed by: cddbd v1.5.2PL0 Copyright (c) Steve Scherf et al.
# Submitted via: dBpowerAMP V12.0
#
DISCID=b90bf90f
DTITLE=Miranda Lambert - Revolution
DYEAR=2009
DGENRE=Country
TTITLE0=White Liar
TTITLE1=Only Prettier
TTITLE2=Dead Flowers
TTITLE3=Me and Your Cigarettes
TTITLE4=Maintain the Pain
TTITLE5=Airstream Song
TTITLE6=Makin' Plans
TTITLE7=Time To Get A Gun
TTITLE8=Somewhere Trouble Don't Go
TTITLE9=The House That Built Me
TTITLE10=Love Song
TTITLE11=Heart Like Mine
TTITLE12=Sin for a Sin
TTITLE13=That's The Way That The World Goes 'Round
TTITLE14=Virginia Bluebell
EXTD=
EXTT0=
EXTT1=
EXTT2=
EXTT3=
EXTT4=
EXTT5=
EXTT6=
EXTT7=
EXTT8=
EXTT9=
EXTT10=
EXTT11=
EXTT12=
EXTT13=
EXTT14=
PLAYORDER=
